<?xml version="1.0" standalone="no"?>
<!DOCTYPE svg PUBLIC "-//W3C//DTD SVG 1.1//EN"
  "http://www.w3.org/Graphics/SVG/1.1/DTD/svg11.dtd">
<svg version="1.1" xmlns="http://www.w3.org/2000/svg" xmlns:xlink="http://www.w3.org/1999/xlink" width="1144" height="1414" viewBox="-32 -32 1144 1414" id="ccdiagram"><filter id="grayscale"><feColorMatrix type="matrix" values="0.3333 0.3333 0.3333 0 0 0.3333 0.3333 0.3333 0 0 0.3333 0.3333 0.3333 0 0 0 0 0 1 0"></feColorMatrix></filter><defs><style type="text/css">@import url('https://fonts.googleapis.com/css?family=Open+Sans:400,700|Inconsolata:400');</style></defs><g><rect x="-32" y="-32" width="1144" height="1414" fill="#ffffff" id="interactionLayer"></rect><g style="pointer-events: none;"><g><pattern id="gridPatternMinor" x="0" y="0" width="90" height="90" patternUnits="userSpaceOnUse"><path d="M -45 45 L 135 45" stroke="#eeeeee" stroke-width="1"></path><path d="M 45 -45 L 45 135" stroke="#eeeeee" stroke-width="1"></path></pattern><polygon points="0 0, 1080 0, 1080 1350, 0 1350" fill="url(#gridPatternMinor)"></polygon></g></g><g pointer-events="auto"><g opacity="1"><g><g><polygon points="180 495, 990 495, 1035 540, 1035 990, 990 1035, 180 1035, 135 990, 135 540" fill="#ff9800" stroke-width="0" stroke="#e6e7e8"></polygon><polygon points="180 540, 990 540, 990 990, 180 990" fill="#e6e7e8"></polygon></g></g></g><g opacity="1"><g><g><polygon points="180 0, 900 0, 945 45, 945 450, 900 495, 630 495, 598 482, 521 405, 180 405, 135 360, 135 45" fill="#00bcd4" stroke-width="0" stroke="#e6e7e8"></polygon><polygon points="180 45, 900 45, 900 450, 630 450, 540 360, 180 360" fill="#e6e7e8"></polygon></g></g></g><g opacity="1"><g><g><polygon points="855 1170, 1035 1170, 1080 1215, 1080 1305, 1035 1350, 855 1350, 810 1305, 810 1215" fill="#ff9800" stroke-width="0" stroke="#e6e7e8"></polygon><polygon points="855 1215, 1035 1215, 1035 1305, 855 1305" fill="#e6e7e8"></polygon></g></g></g><g opacity="1"><g><g><polygon points="720 495, 810 495, 855 540, 855 990, 810 1035, 720 1035, 675 990, 675 540" fill="#8bc34a" stroke-width="0" stroke="#e6e7e8"></polygon><polygon points="720 540, 810 540, 810 990, 720 990" fill="#e6e7e8"></polygon></g></g></g></g><g style="pointer-events: none;"><g><pattern id="gridPatternMajor" x="0" y="0" width="90" height="90" patternUnits="userSpaceOnUse"><path d="M 0 0 L 90 0 90 90 0 90 z" stroke="#54626f" stroke-width="1" fill="none"></path></pattern><polygon points="0 0, 1080 0, 1080 1350, 0 1350" fill="url(#gridPatternMajor)"></polygon></g></g><g pointer-events="auto"></g><g pointer-events="auto"></g><g></g><g pointer-events="auto"></g><g></g><g pointer-events="auto"></g><g pointer-events="auto"></g><g pointer-events="none"></g><g pointer-events="auto"><g id="2fc4762f-dfd8-492a-91e2-f87c8cdd6b59-da16cce0-f130-4696-8433-df82503a53d6"><g cursor="cell"><line x1="945" y1="833" x2="945" y2="900" stroke="red" stroke-width="8" opacity="0"></line><line x1="945" y1="833" x2="945" y2="900" stroke="#000000" stroke-width="2" stroke-linecap="round"></line></g></g><g id="da16cce0-f130-4696-8433-df82503a53d6-a3ea16c4-0644-40eb-82bb-5fed67f7d424"><g cursor="cell"><line x1="900" y1="945" x2="900" y2="945" stroke="red" stroke-width="8" opacity="0"></line><line x1="900" y1="945" x2="900" y2="945" stroke="#000000" stroke-width="2" stroke-linecap="round"></line></g></g><g id="2097009a-7ad3-4247-934f-4e5ae9e959f4-3f3b3dc4-8b24-427f-a440-422a517c4b3e"><g cursor="cell"><line x1="551" y1="195" x2="709" y2="97" stroke="red" stroke-width="8" opacity="0"></line><line x1="551" y1="195" x2="709" y2="97" stroke="#000000" stroke-width="2" stroke-linecap="round"></line><polygon points="540 203, 567 199, 555 193, 555 180, 540 203" stroke-linejoin="round" fill="#000000" stroke="#000000" stroke-width="1"></polygon><polygon points="720 90, 693 93, 705 99, 705 113, 720 90" stroke-linejoin="round" fill="#000000" stroke="#000000" stroke-width="1"></polygon></g></g><g id="a3ea16c4-0644-40eb-82bb-5fed67f7d424-89c8b411-b065-4abb-9eea-2b08b3df7e3a"><g cursor="cell"><line x1="900" y1="945" x2="810" y2="585" stroke="red" stroke-width="8" opacity="0"></line><line x1="900" y1="945" x2="810" y2="585" stroke="#000000" stroke-width="2" stroke-linecap="round"></line></g></g><g id="d1868f21-e09e-4c4f-a93e-ec7c3ce13957-9e02b931-2af5-481a-9d90-aeb0fce83017"><g cursor="cell"><line x1="765" y1="1148" x2="765" y2="990" stroke="red" stroke-width="8" opacity="0"></line><line x1="765" y1="1148" x2="765" y2="990" stroke="#000000" stroke-width="2" stroke-linecap="round"></line></g></g><g id="9668134d-e77b-479d-932c-fcf0bf60c8db-30f1d90c-b7f9-4116-8894-b6170cb5cdc9"><g cursor="cell"><line x1="1238" y1="585" x2="990" y2="585" stroke="red" stroke-width="8" opacity="0"></line><line x1="1238" y1="585" x2="990" y2="585" stroke="#000000" stroke-width="2" stroke-linecap="round"></line></g></g><g id="08354ff7-7234-444b-aed3-510bc6144158-69b24e2c-f8dd-4fba-a850-23135fd87599"><g cursor="cell"><line x1="765" y1="135" x2="765" y2="212" stroke="red" stroke-width="8" opacity="0"></line><line x1="765" y1="135" x2="765" y2="212" stroke="#000000" stroke-width="2" stroke-linecap="round"></line><polygon points="765 225, 776 201, 765 207, 754 201, 765 225" stroke-linejoin="round" fill="#000000" stroke="#000000" stroke-width="1"></polygon></g></g><g id="a3a0a11a-5790-401f-b2d4-89a165feda05-962ce94b-30e2-43f9-b9ba-0255bd6cb431"><g cursor="cell"><line x1="1035" y1="1260" x2="1269" y2="1260" stroke="red" stroke-width="8" opacity="0"></line><line x1="1035" y1="1260" x2="1269" y2="1260" stroke="#000000" stroke-width="2" stroke-linecap="round"></line><polygon points="1283 1260, 1258 1249, 1265 1260, 1258 1271, 1283 1260" stroke-linejoin="round" fill="#000000" stroke="#000000" stroke-width="1"></polygon></g></g><g id="709e1011-ac92-44f1-9e8a-0043ea49d036-5954b309-bbe4-43c1-8db7-75a7da50cbac"><g cursor="cell"><line x1="720" y1="765" x2="644" y2="765" stroke="red" stroke-width="8" opacity="0"></line><line x1="720" y1="765" x2="644" y2="765" stroke="#000000" stroke-width="2" stroke-linecap="round"></line><polygon points="630 765, 654 776, 648 765, 654 754, 630 765" stroke-linejoin="round" fill="#000000" stroke="#000000" stroke-width="1"></polygon></g></g><g id="f14f7cd4-58dd-4a92-abc2-3b47870ff77a-a88129dc-0035-4c2b-b11b-ede9022fd2fd"><g cursor="cell"><line x1="270" y1="203" x2="338" y2="203" stroke="red" stroke-width="8" opacity="0"></line><line x1="270" y1="203" x2="338" y2="203" stroke="#000000" stroke-width="2" stroke-linecap="round"></line></g></g><g id="da16cce0-f130-4696-8433-df82503a53d6-33e5adea-fe9e-4f30-836f-03f278e8fdf4"><g cursor="cell"><line x1="900" y1="945" x2="810" y2="945" stroke="red" stroke-width="8" opacity="0"></line><line x1="900" y1="945" x2="810" y2="945" stroke="#000000" stroke-width="2" stroke-linecap="round"></line></g></g><g id="c23423cd-9edf-409c-8f99-cc4c02a224e1-d1868f21-e09e-4c4f-a93e-ec7c3ce13957"><g cursor="cell"><line x1="675" y1="1148" x2="765" y2="1148" stroke="red" stroke-width="8" opacity="0"></line><line x1="675" y1="1148" x2="765" y2="1148" stroke="#000000" stroke-width="2" stroke-linecap="round"></line></g></g><g id="d248d127-7489-4cd5-b20f-1eef54a32514-5954b309-bbe4-43c1-8db7-75a7da50cbac"><g cursor="cell"><line x1="585" y1="608" x2="585" y2="698" stroke="red" stroke-width="8" opacity="0"></line><line x1="585" y1="608" x2="585" y2="698" stroke="#000000" stroke-width="2" stroke-linecap="round"></line></g></g><g id="30f1d90c-b7f9-4116-8894-b6170cb5cdc9-74b41901-f396-4e93-bdce-9abd5e186efc"><g cursor="cell"><line x1="945" y1="630" x2="945" y2="684" stroke="red" stroke-width="8" opacity="0"></line><line x1="945" y1="630" x2="945" y2="684" stroke="#000000" stroke-width="2" stroke-linecap="round"></line><polygon points="945 698, 956 673, 945 680, 934 673, 945 698" stroke-linejoin="round" fill="#000000" stroke="#000000" stroke-width="1"></polygon></g></g><g id="33e5adea-fe9e-4f30-836f-03f278e8fdf4-f1e3546b-7720-4f6d-b988-c4a455d7ea4f"><g cursor="cell"><line x1="765" y1="900" x2="640" y2="775" stroke="red" stroke-width="8" opacity="0"></line><line x1="765" y1="900" x2="640" y2="775" stroke="#000000" stroke-width="2" stroke-linecap="round"></line><polygon points="630 765, 639 790, 642 777, 655 774, 630 765" stroke-linejoin="round" fill="#000000" stroke="#000000" stroke-width="1"></polygon></g></g><g id="d9567084-c759-42a0-8ace-5bf6ae4abc43-5ec0e395-310b-42fd-8f8e-9e8663015de8"><g cursor="cell"><line x1="360" y1="1283" x2="608" y2="1283" stroke="red" stroke-width="8" opacity="0"></line><line x1="360" y1="1283" x2="608" y2="1283" stroke="#000000" stroke-width="2" stroke-linecap="round"></line></g></g><g id="a3ea16c4-0644-40eb-82bb-5fed67f7d424-24a14cef-f984-408f-ac6d-796f7770b8df"><g cursor="cell"><line x1="900" y1="945" x2="810" y2="765" stroke="red" stroke-width="8" opacity="0"></line><line x1="900" y1="945" x2="810" y2="765" stroke="#000000" stroke-width="2" stroke-linecap="round"></line></g></g><g id="5ec0e395-310b-42fd-8f8e-9e8663015de8-882a85b8-dcb4-4965-ba88-1239c0f75528"><g cursor="cell"><line x1="608" y1="1283" x2="608" y2="1463" stroke="red" stroke-width="8" opacity="0"></line><line x1="608" y1="1283" x2="608" y2="1463" stroke="#000000" stroke-width="2" stroke-linecap="round"></line></g></g><g id="5a715e43-3904-434d-bb56-962d32cbf85b-825a267e-8dd2-403d-9a68-29277fea896c"><g cursor="cell"><line x1="548" y1="304" x2="712" y2="101" stroke="red" stroke-width="8" opacity="0"></line><line x1="548" y1="304" x2="712" y2="101" stroke="#000000" stroke-width="2" stroke-linecap="round"></line><polygon points="540 315, 564 303, 551 301, 546 289, 540 315" stroke-linejoin="round" fill="#000000" stroke="#000000" stroke-width="1"></polygon><polygon points="720 90, 696 102, 709 104, 714 116, 720 90" stroke-linejoin="round" fill="#000000" stroke="#000000" stroke-width="1"></polygon></g></g><g id="bb4c7d34-40ff-42a4-9ef7-95d5a951e827-5f590c10-66a4-4735-b340-d753ef1ecefb"><g cursor="cell"><line x1="585" y1="945" x2="554" y2="945" stroke="red" stroke-width="8" opacity="0"></line><line x1="585" y1="945" x2="554" y2="945" stroke="#000000" stroke-width="2" stroke-linecap="round"></line><polygon points="540 945, 564 956, 558 945, 564 934, 540 945" stroke-linejoin="round" fill="#000000" stroke="#000000" stroke-width="1"></polygon></g></g><g id="a88129dc-0035-4c2b-b11b-ede9022fd2fd-6431e40c-4885-424f-8fb3-25671de7b8dc"><g cursor="cell"><line x1="338" y1="203" x2="440" y2="305" stroke="red" stroke-width="8" opacity="0"></line><line x1="338" y1="203" x2="440" y2="305" stroke="#000000" stroke-width="2" stroke-linecap="round"></line><polygon points="450 315, 441 290, 438 303, 425 306, 450 315" stroke-linejoin="round" fill="#000000" stroke="#000000" stroke-width="1"></polygon></g></g><g id="2183a7c6-f103-417a-865f-5eb4383261f3-bdc5b6c4-039d-4db6-83e1-ecaed72cabb2"><g cursor="cell"><line x1="45" y1="1440" x2="45" y2="1350" stroke="red" stroke-width="8" opacity="0"></line><line x1="45" y1="1440" x2="45" y2="1350" stroke="#000000" stroke-width="2" stroke-linecap="round"></line></g></g><g id="33175315-e824-4e51-ac34-a9c649039494-2fc4762f-dfd8-492a-91e2-f87c8cdd6b59"><g cursor="cell"><line x1="923" y1="833" x2="945" y2="833" stroke="red" stroke-width="8" opacity="0"></line><line x1="923" y1="833" x2="945" y2="833" stroke="#000000" stroke-width="2" stroke-linecap="round"></line></g></g><g id="7314ef10-5e3f-473e-8cea-5bceb8f871d0-d248d127-7489-4cd5-b20f-1eef54a32514"><g cursor="cell"><line x1="531" y1="608" x2="585" y2="608" stroke="red" stroke-width="8" opacity="0"></line><line x1="531" y1="608" x2="585" y2="608" stroke="#000000" stroke-width="2" stroke-linecap="round"></line><polygon points="518 608, 542 619, 535 608, 542 596, 518 608" stroke-linejoin="round" fill="#000000" stroke="#000000" stroke-width="1"></polygon></g></g><g id="5954b309-bbe4-43c1-8db7-75a7da50cbac-bb4c7d34-40ff-42a4-9ef7-95d5a951e827"><g cursor="cell"><line x1="585" y1="833" x2="585" y2="945" stroke="red" stroke-width="8" opacity="0"></line><line x1="585" y1="833" x2="585" y2="945" stroke="#000000" stroke-width="2" stroke-linecap="round"></line></g></g><g id="5ec0e395-310b-42fd-8f8e-9e8663015de8-48be637e-6fad-48ba-90d0-018a42e70a22"><g cursor="cell"><line x1="608" y1="1283" x2="855" y2="1283" stroke="red" stroke-width="8" opacity="0"></line><line x1="608" y1="1283" x2="855" y2="1283" stroke="#000000" stroke-width="2" stroke-linecap="round"></line></g></g><g id="e09e9af8-45f4-4394-b6a0-b2a16bd7608a-a9a80314-343e-4e25-8c2c-5b86033b02f1"><g cursor="cell"><line x1="338" y1="608" x2="90" y2="608" stroke="red" stroke-width="8" opacity="0"></line><line x1="338" y1="608" x2="90" y2="608" stroke="#000000" stroke-width="2" stroke-linecap="round"></line></g></g><g id="a3ea16c4-0644-40eb-82bb-5fed67f7d424-da16cce0-f130-4696-8433-df82503a53d6"><g cursor="cell"><line x1="900" y1="945" x2="900" y2="945" stroke="red" stroke-width="8" opacity="0"></line><line x1="900" y1="945" x2="900" y2="945" stroke="#000000" stroke-width="2" stroke-linecap="round"></line></g></g><g id="bdc5b6c4-039d-4db6-83e1-ecaed72cabb2-838b6068-9bb3-4c20-9383-3b5ddaa55de3"><g cursor="cell"><line x1="90" y1="1305" x2="257" y2="1305" stroke="red" stroke-width="8" opacity="0"></line><line x1="90" y1="1305" x2="257" y2="1305" stroke="#000000" stroke-width="2" stroke-linecap="round"></line><polygon points="270 1305, 246 1294, 252 1305, 246 1316, 270 1305" stroke-linejoin="round" fill="#000000" stroke="#000000" stroke-width="1"></polygon></g></g><g id="02cf9e45-2e90-4c16-908b-70ea29820cc8-afb8da30-5248-42b5-986b-cd98013b9884"><g cursor="cell"><line x1="1193" y1="990" x2="990" y2="990" stroke="red" stroke-width="8" opacity="0"></line><line x1="1193" y1="990" x2="990" y2="990" stroke="#000000" stroke-width="2" stroke-linecap="round"></line></g></g><g id="5954b309-bbe4-43c1-8db7-75a7da50cbac-6a2a6022-ddc9-4f65-8764-cae7efc52f6b"><g cursor="cell"><line x1="540" y1="765" x2="450" y2="765" stroke="red" stroke-width="8" opacity="0"></line><line x1="540" y1="765" x2="450" y2="765" stroke="#000000" stroke-width="2" stroke-linecap="round"></line></g></g><g id="a88129dc-0035-4c2b-b11b-ede9022fd2fd-a79af0bb-4a2e-4d84-bcf5-3c6455f98280"><g cursor="cell"><line x1="338" y1="203" x2="436" y2="203" stroke="red" stroke-width="8" opacity="0"></line><line x1="338" y1="203" x2="436" y2="203" stroke="#000000" stroke-width="2" stroke-linecap="round"></line><polygon points="450 203, 426 191, 432 203, 426 214, 450 203" stroke-linejoin="round" fill="#000000" stroke="#000000" stroke-width="1"></polygon></g></g><g id="a88129dc-0035-4c2b-b11b-ede9022fd2fd-52371172-497b-4e84-b00e-0e57f0737c92"><g cursor="cell"><line x1="338" y1="203" x2="440" y2="100" stroke="red" stroke-width="8" opacity="0"></line><line x1="338" y1="203" x2="440" y2="100" stroke="#000000" stroke-width="2" stroke-linecap="round"></line><polygon points="450 90, 425 99, 438 102, 441 115, 450 90" stroke-linejoin="round" fill="#000000" stroke="#000000" stroke-width="1"></polygon></g></g><g id="a12d441b-efdf-4e82-8b44-298e9b9237f1-825a267e-8dd2-403d-9a68-29277fea896c"><g cursor="cell"><line x1="554" y1="90" x2="707" y2="90" stroke="red" stroke-width="8" opacity="0"></line><line x1="554" y1="90" x2="707" y2="90" stroke="#000000" stroke-width="2" stroke-linecap="round"></line><polygon points="540 90, 564 101, 558 90, 564 79, 540 90" stroke-linejoin="round" fill="#000000" stroke="#000000" stroke-width="1"></polygon><polygon points="720 90, 696 79, 702 90, 696 101, 720 90" stroke-linejoin="round" fill="#000000" stroke="#000000" stroke-width="1"></polygon></g></g><g id="a38a9755-5a17-4abd-ad6e-25458f971a2e-5954b309-bbe4-43c1-8db7-75a7da50cbac"><g cursor="cell"><line x1="720" y1="585" x2="636" y2="753" stroke="red" stroke-width="8" opacity="0"></line><line x1="720" y1="585" x2="636" y2="753" stroke="#000000" stroke-width="2" stroke-linecap="round"></line><polygon points="630 765, 651 748, 638 749, 631 738, 630 765" stroke-linejoin="round" fill="#000000" stroke="#000000" stroke-width="1"></polygon></g></g><g id="720a192b-064a-43ab-8314-adbd0f208961-02cf9e45-2e90-4c16-908b-70ea29820cc8"><g cursor="cell"><line x1="1328" y1="990" x2="1193" y2="990" stroke="red" stroke-width="8" opacity="0"></line><line x1="1328" y1="990" x2="1193" y2="990" stroke="#000000" stroke-width="2" stroke-linecap="round"></line></g></g></g><g pointer-events="auto"><g opacity="1"><g id="63e7cef7-3bdd-49d8-9b99-7b9cfc9d4689" transform="translate(0 0)"><svg x="180" y="45" width="90" height="90"><path fill="#d86613" d="M80.402 80.402H9.599V9.599h70.803zm-67.137-3.667h63.47v-63.47h-63.47Z"></path><path fill="#d86613" d="M19.719 1h3.666v10.432H19.72zm11.495 0h3.666v10.432h-3.666zm11.513 0h3.667v10.432h-3.667zM54.24 1h3.667v10.432H54.24zm11.514 0h3.666v10.432h-3.666zM19.719 78.57h3.666V89H19.72zm11.495 0h3.666V89h-3.666zm11.513 0h3.667V89h-3.667zm11.513 0h3.667V89H54.24zm11.514 0h3.666V89h-3.666zm12.815-58.41H89v3.666H78.57zm0 11.495H89v3.666H78.57zm0 11.513H89v3.667H78.57zm0 11.513H89v3.667H78.57zm0 11.495H89v3.667H78.57zM1 20.16h10.432v3.666H1zm0 11.495h10.432v3.666H1zm0 11.513h10.432v3.667H1zM1 54.68h10.432v3.667H1zm0 11.495h10.432v3.667H1z"></path><path fill="#d86613" d="M13.265 13.265h63.47v63.47h-63.47z" opacity=".05"></path></svg><svg x="198" y="72" width="54" height="36" style="overflow: visible; cursor: default;"><text transform="" font-family="Open Sans" text-anchor="middle" x="50%" font-weight="bold" font-size="18pt" y="75%" fill="#d86613"><tspan>M3</tspan></text></svg></g></g><g opacity="1"><g id="a12d441b-efdf-4e82-8b44-298e9b9237f1" transform="translate(0 0)"><g><polygon points="450 45, 540 45, 540 135, 450 135" fill="#4286c5"></polygon></g></g></g><g opacity="1"><g id="08354ff7-7234-444b-aed3-510bc6144158" transform="translate(0 0)"><g><polygon points="720 45, 810 45, 810 135, 720 135" fill="#4286c5"></polygon></g></g></g><g opacity="1"><g id="f14f7cd4-58dd-4a92-abc2-3b47870ff77a" transform="translate(0 0)"><g><polygon points="180 158, 270 158, 270 248, 180 248" fill="#4286c5"></polygon></g></g></g><g opacity="1"><g id="2097009a-7ad3-4247-934f-4e5ae9e959f4" transform="translate(0 0)"><g><polygon points="450 158, 540 158, 540 248, 450 248" fill="#4286c5"></polygon></g></g></g><g opacity="1"><g id="d0a7550a-4cf1-4739-b2d3-7228e7eb7d26" transform="translate(0 0)"><g><polygon points="675 225, 810 225, 810 315, 675 315" fill="#4286c5"></polygon></g></g></g><g opacity="1"><g id="5a715e43-3904-434d-bb56-962d32cbf85b" transform="translate(0 0)"><g><polygon points="450 270, 540 270, 540 360, 450 360" fill="#4286c5"></polygon></g></g></g><g opacity="1"><g id="40d0d11e-fecd-4b3e-9501-f6a29739d2ad" transform="translate(0 0)"><g><polygon points="630 360, 810 360, 810 450, 630 450" fill="#4286c5"></polygon></g></g></g><g opacity="1"><g id="7c361311-c333-4ef7-a6d5-2891523e7358" transform="translate(0 0)"><svg x="180" y="540" width="90" height="90"><path fill="#d86613" d="M80.402 80.402H9.599V9.599h70.803zm-67.137-3.667h63.47v-63.47h-63.47Z"></path><path fill="#d86613" d="M19.719 1h3.666v10.432H19.72zm11.495 0h3.666v10.432h-3.666zm11.513 0h3.667v10.432h-3.667zM54.24 1h3.667v10.432H54.24zm11.514 0h3.666v10.432h-3.666zM19.719 78.57h3.666V89H19.72zm11.495 0h3.666V89h-3.666zm11.513 0h3.667V89h-3.667zm11.513 0h3.667V89H54.24zm11.514 0h3.666V89h-3.666zm12.815-58.41H89v3.666H78.57zm0 11.495H89v3.666H78.57zm0 11.513H89v3.667H78.57zm0 11.513H89v3.667H78.57zm0 11.495H89v3.667H78.57zM1 20.16h10.432v3.666H1zm0 11.495h10.432v3.666H1zm0 11.513h10.432v3.667H1zM1 54.68h10.432v3.667H1zm0 11.495h10.432v3.667H1z"></path><path fill="#d86613" d="M13.265 13.265h63.47v63.47h-63.47z" opacity=".05"></path></svg><svg x="198" y="567" width="54" height="36" style="overflow: visible; cursor: default;"><text transform="" font-family="Open Sans" text-anchor="middle" x="50%" font-weight="bold" font-size="18pt" y="75%" fill="#d86613"><tspan>M3</tspan></text></svg></g></g><g opacity="1"><g id="a38a9755-5a17-4abd-ad6e-25458f971a2e" transform="translate(0 0)"><g><polygon points="720 540, 810 540, 810 630, 720 630" fill="#4286c5"></polygon></g></g></g><g opacity="1"><g id="30f1d90c-b7f9-4116-8894-b6170cb5cdc9" transform="translate(0 0)"><g><polygon points="900 540, 990 540, 990 630, 900 630" fill="#4286c5"></polygon></g></g></g><g opacity="1"><g id="9668134d-e77b-479d-932c-fcf0bf60c8db" transform="translate(0 0)"><svg x="1238" y="540" width="90" height="90"><g fill="#232f3e" transform="translate(-2.872 -2.852) scale(1.9149)"><circle cx="25.03" cy="13.644" r="10.787" opacity=".05"></circle><path d="M47.5 48.44h-45a1 1 0 0 1-1-1v-3a22.73 22.73 0 0 1 17.36-22.1 1.06 1.06 0 0 1 .72.09 11.29 11.29 0 0 0 10.82 0 1 1 0 0 1 .71-.09A22.73 22.73 0 0 1 48.5 44.45v3a1 1 0 0 1-1 .99z" opacity=".05"></path><path d="M47.5 48.44h-45a1 1 0 0 1-1-1v-3a22.73 22.73 0 0 1 17.36-22.1 1.06 1.06 0 0 1 .72.09 11.29 11.29 0 0 0 10.82 0 1 1 0 0 1 .71-.09A22.73 22.73 0 0 1 48.5 44.45v3a1 1 0 0 1-1 .99zm-44-2h43v-2A20.71 20.71 0 0 0 31 24.39a13.51 13.51 0 0 1-6 1.43 13.21 13.21 0 0 1-6-1.43A20.72 20.72 0 0 0 3.5 44.45Z"></path><path d="M25 25.75a12.18 12.18 0 0 1-5.9-1.5 12.13 12.13 0 1 1 18.06-10.58 12 12 0 0 1-6.32 10.58 12.38 12.38 0 0 1-5.84 1.5Zm0-22.19a10.08 10.08 0 0 0-5 18.94 10.33 10.33 0 0 0 9.85 0A10.08 10.08 0 0 0 25 3.56Z"></path></g></svg></g></g><g opacity="1"><g id="a9a80314-343e-4e25-8c2c-5b86033b02f1" transform="translate(0 0)"><svg x="0" y="563" width="90" height="90"><path fill="#3f8624" d="M0 0h90v90H0z"></path><path fill="#ffffff" d="M73.716 48.072c-.348-1.884-2.484-3.216-3.948-4.164-.468-.3-1.752-.78-1.86-1.2a2.832 2.832 0 0 1 .12-.888l1.2-8.628c.348-2.532.684-5.064 1.032-7.596.312-2.328-.804-3.888-2.7-5.196-3.864-2.676-8.904-3.756-13.452-4.5a67.02 67.02 0 0 0-17.256-.564 48 48 0 0 0-15.036 3.6c-2.568 1.2-5.928 3.072-5.508 6.348 1.2 9.744 2.616 19.464 3.924 29.196l1.8 13.356a4.956 4.956 0 0 0 2.952 3.996c3.72 2.016 8.328 2.592 12.48 2.976A61.8 61.8 0 0 0 54 74.076c3.456-.636 9.888-1.68 10.44-6 .684-5.352 1.44-10.704 2.16-16.044l.264-1.632c1.956.468 7.536 1.464 6.852-2.328zM43.26 17.4c7.2 0 15.444.816 21.9 4.368.996.552 3.312 1.788 2.616 3.252-.696 1.464-2.856 2.196-4.176 2.724a37.056 37.056 0 0 1-5.796 1.62 74.748 74.748 0 0 1-25.992.54 32.16 32.16 0 0 1-11.184-3.276c-.864-.492-2.292-1.38-1.896-2.556a3.6 3.6 0 0 1 1.416-1.512 25.008 25.008 0 0 1 8.64-3.492A60.42 60.42 0 0 1 43.26 17.4zm18.816 50.58c-.18 1.404-2.496 2.1-3.6 2.496a35.52 35.52 0 0 1-7.056 1.584 60.864 60.864 0 0 1-16.044 0 26.688 26.688 0 0 1-9.6-2.604 2.4 2.4 0 0 1-1.44-2.076c-1.2-9.516-2.568-19.032-3.852-28.548l-1.392-10.32a27.912 27.912 0 0 0 8.76 3.072 71.544 71.544 0 0 0 9.972 1.308A77.76 77.76 0 0 0 57.492 31.8a29.124 29.124 0 0 0 9.852-3.288L64.8 47.352a144.516 144.516 0 0 1-17.784-7.2 5.124 5.124 0 0 1-.732-.348c-.324-.24-.24-.12-.396-.492-.3-.684-.372-1.2-1.008-1.764a2.7 2.7 0 1 0-1.488 4.8 4.944 4.944 0 0 0 1.2-.36c.468-.144.468-.12.96.108a152.064 152.064 0 0 0 18 7.392c.924.3.912 0 .912.768a13.788 13.788 0 0 1-.228 1.74l-.768 5.724ZM43.56 39.6c0 .324-.456.288-.576.084-.12-.204.576-.54.576-.084ZM67.2 48l.36-2.652c1.2.684 3.24 1.716 3.78 3.084-1.176.48-3.036-.156-4.14-.432Z"></path></svg></g></g><g opacity="1"><g id="e09e9af8-45f4-4394-b6a0-b2a16bd7608a" transform="translate(0 0)"><g><polygon points="338 563, 518 563, 518 653, 338 653" fill="#4286c5"></polygon></g></g></g><g opacity="1"><g id="5954b309-bbe4-43c1-8db7-75a7da50cbac" transform="translate(0 0)"><g><polygon points="540 698, 630 698, 630 833, 540 833" fill="#4286c5"></polygon></g></g></g><g opacity="1"><g id="33175315-e824-4e51-ac34-a9c649039494" transform="translate(0 0)"><g><polygon points="855 698, 990 698, 990 833, 855 833" fill="#4286c5"></polygon></g></g></g><g opacity="1"><g id="6a2a6022-ddc9-4f65-8764-cae7efc52f6b" transform="translate(0 0)"><g><polygon points="360 720, 450 720, 450 810, 360 810" fill="#4286c5"></polygon></g></g></g><g opacity="1"><g id="709e1011-ac92-44f1-9e8a-0043ea49d036" transform="translate(0 0)"><g><polygon points="720 720, 810 720, 810 810, 720 810" fill="#4286c5"></polygon></g></g></g><g opacity="1"><g id="5f590c10-66a4-4735-b340-d753ef1ecefb" transform="translate(0 0)"><g><polygon points="225 900, 540 900, 540 990, 225 990" fill="#4286c5"></polygon></g></g></g><g opacity="1"><g id="33e5adea-fe9e-4f30-836f-03f278e8fdf4" transform="translate(0 0)"><g><polygon points="720 900, 810 900, 810 990, 720 990" fill="#4286c5"></polygon></g></g></g><g opacity="1"><g id="da16cce0-f130-4696-8433-df82503a53d6" transform="translate(0 0)"><g><polygon points="900 900, 990 900, 990 990, 900 990" fill="#4286c5"></polygon></g></g></g><g opacity="1"><g id="720a192b-064a-43ab-8314-adbd0f208961" transform="translate(0 0)"><g><polygon points="1283 990, 1373 990, 1373 1350, 1283 1350" fill="#4286c5"></polygon></g></g></g><g opacity="1"><g id="55371890-5c93-42ab-a9b0-d4fb8019a143" transform="translate(0 0)"><g><polygon points="-247 1035, -202 1035, -202 1260, -247 1260" fill="#4286c5"></polygon></g></g></g><g opacity="1"><g id="c23423cd-9edf-409c-8f99-cc4c02a224e1" transform="translate(0 0)"><g><polygon points="540 1080, 675 1080, 675 1215, 540 1215" fill="#4286c5"></polygon></g></g></g><g opacity="1"><g id="d9567084-c759-42a0-8ace-5bf6ae4abc43" transform="translate(0 0)"><g><polygon points="270 1215, 360 1215, 360 1350, 270 1350" fill="#4286c5"></polygon></g></g></g><g opacity="1"><g id="00d3de2a-1110-485c-bc67-74951aec7a58" transform="translate(0 0)"><svg x="855" y="1215" width="90" height="90"><path fill="#d86613" d="M80.402 80.402H9.599V9.599h70.803zm-67.137-3.667h63.47v-63.47h-63.47Z"></path><path fill="#d86613" d="M19.719 1h3.666v10.432H19.72zm11.495 0h3.666v10.432h-3.666zm11.513 0h3.667v10.432h-3.667zM54.24 1h3.667v10.432H54.24zm11.514 0h3.666v10.432h-3.666zM19.719 78.57h3.666V89H19.72zm11.495 0h3.666V89h-3.666zm11.513 0h3.667V89h-3.667zm11.513 0h3.667V89H54.24zm11.514 0h3.666V89h-3.666zm12.815-58.41H89v3.666H78.57zm0 11.495H89v3.666H78.57zm0 11.513H89v3.667H78.57zm0 11.513H89v3.667H78.57zm0 11.495H89v3.667H78.57zM1 20.16h10.432v3.666H1zm0 11.495h10.432v3.666H1zm0 11.513h10.432v3.667H1zM1 54.68h10.432v3.667H1zm0 11.495h10.432v3.667H1z"></path><path fill="#d86613" d="M13.265 13.265h63.47v63.47h-63.47z" opacity=".05"></path></svg><svg x="873" y="1242" width="54" height="36" style="overflow: visible; cursor: default;"><text transform="" font-family="Open Sans" text-anchor="middle" x="50%" font-weight="bold" font-size="18pt" y="75%" fill="#d86613"><tspan>T3</tspan></text></svg></g></g><g opacity="1"><g id="a3a0a11a-5790-401f-b2d4-89a165feda05" transform="translate(0 0)"><g><polygon points="945 1215, 1035 1215, 1035 1305, 945 1305" fill="#4286c5"></polygon></g></g></g><g opacity="1"><g id="bdc5b6c4-039d-4db6-83e1-ecaed72cabb2" transform="translate(0 0)"><g><polygon points="0 1260, 90 1260, 90 1350, 0 1350" fill="#4286c5"></polygon></g></g></g><g opacity="1"><g id="2183a7c6-f103-417a-865f-5eb4383261f3" transform="translate(0 0)"><svg x="0" y="1440" width="90" height="90"><g fill="#03a9f4" transform="translate(-2.872 -2.852) scale(1.9149)"><circle cx="25.03" cy="13.644" r="10.787" opacity=".05"></circle><path d="M47.5 48.44h-45a1 1 0 0 1-1-1v-3a22.73 22.73 0 0 1 17.36-22.1 1.06 1.06 0 0 1 .72.09 11.29 11.29 0 0 0 10.82 0 1 1 0 0 1 .71-.09A22.73 22.73 0 0 1 48.5 44.45v3a1 1 0 0 1-1 .99z" opacity=".05"></path><path d="M47.5 48.44h-45a1 1 0 0 1-1-1v-3a22.73 22.73 0 0 1 17.36-22.1 1.06 1.06 0 0 1 .72.09 11.29 11.29 0 0 0 10.82 0 1 1 0 0 1 .71-.09A22.73 22.73 0 0 1 48.5 44.45v3a1 1 0 0 1-1 .99zm-44-2h43v-2A20.71 20.71 0 0 0 31 24.39a13.51 13.51 0 0 1-6 1.43 13.21 13.21 0 0 1-6-1.43A20.72 20.72 0 0 0 3.5 44.45Z"></path><path d="M25 25.75a12.18 12.18 0 0 1-5.9-1.5 12.13 12.13 0 1 1 18.06-10.58 12 12 0 0 1-6.32 10.58 12.38 12.38 0 0 1-5.84 1.5Zm0-22.19a10.08 10.08 0 0 0-5 18.94 10.33 10.33 0 0 0 9.85 0A10.08 10.08 0 0 0 25 3.56Z"></path></g></svg></g></g><g opacity="1"><g id="882a85b8-dcb4-4965-ba88-1239c0f75528" transform="translate(0 0)"><g><polygon points="473 1463, 743 1463, 743 1553, 473 1553" fill="#4286c5"></polygon></g></g></g></g><g pointer-events="auto"><g opacity="1"><g id="e043cc92-c039-4f5d-a095-a0b53f519163" transform="translate(0 0)"><svg x="-315" y="1148" overflow="visible"><g transform="scale(0.5660000000000002) rotate(270)"><svg x="-200" y="-200" overflow="visible"><image xlink:href="https://images.cloudcraft.co/7a412442-fa1d-4ce1-9f1f-195c54c70b1a/%C3%AC%C2%8B%C2%B8%C3%AD%C2%94%C2%BC%C3%AB%C2%AC%C2%BC%C3%AC%C2%82%C2%B0_%C3%AB%C2%A1%C2%9C%C3%AA%C2%B3%C2%A0.jpg" width="400" height="400"></image></svg></g></svg></g></g><g opacity="1"><g id="5325b373-c64f-4fbe-8732-9a618f09828e" transform="translate(0 0)"><svg x="-337" y="959" overflow="visible"><g transform="scale(1.415) "><svg x="-13.5" y="-16" width="27" height="32"><svg width="27" height="32" viewBox="0 0 27 32"><defs><marker id="a" orient="auto" refX="0" refY="0" style="overflow:visible"><path d="m0 0 5-5-17.5 5L5 5 0 0Z" style="fill:#fff;fill-opacity:1;fill-rule:evenodd;stroke:#fff;stroke-width:1pt;stroke-opacity:1" transform="matrix(-.8 0 0 -.8 -10 0)"></path></marker></defs><g style="display:inline"><circle cx="4.462" cy="20.677" r="2.247" style="fill:#fff;fill-opacity:1;stroke:#fff;stroke-width:.63010395;stroke-linejoin:round;stroke-miterlimit:4;stroke-dasharray:none;stroke-opacity:1"></circle><path d="m4.462 20.677 15.961-9.216" style="fill:#fff;fill-opacity:1;fill-rule:evenodd;stroke:#fff;stroke-width:.94515586;stroke-linecap:butt;stroke-linejoin:miter;stroke-miterlimit:4;stroke-dasharray:none;stroke-opacity:1"></path><path d="m14.284 15.006 9.823-5.671" style="fill:#fff;fill-opacity:1;fill-rule:evenodd;stroke:#fff;stroke-width:.63010395;stroke-linecap:butt;stroke-linejoin:miter;stroke-miterlimit:4;stroke-dasharray:none;stroke-opacity:1;marker-end:url(#a)"></path></g></svg></svg></g></svg></g></g><g opacity="1"><g id="39d2fc30-3b10-421d-9364-934c7390f1e0" transform="translate(0 0)"><svg x="-179" y="954" overflow="visible"><g transform="scale(1.415) "><svg x="-13.5" y="-16" width="27" height="32"><svg width="27" height="32" viewBox="0 0 27 32"><g style="display:inline"><g><g style="display:inline;fill:#fff;fill-opacity:1;stroke:#fff;stroke-opacity:1" transform="translate(-31.53 444.042) scale(.28886)"><circle cx="124.708" cy="-1463.813" r="7.132" style="fill:#fff;fill-opacity:1;stroke:#fff;stroke-width:2;stroke-linejoin:round;stroke-miterlimit:4;stroke-dasharray:none;stroke-opacity:1"></circle><circle cx="187.061" cy="-1499.813" r="7.132" style="display:inline;fill:#fff;fill-opacity:1;stroke:#fff;stroke-width:2;stroke-linejoin:round;stroke-miterlimit:4;stroke-dasharray:none;stroke-opacity:1"></circle><path d="m124.708-1463.813 62.353-36" style="fill:#fff;fill-opacity:1;fill-rule:evenodd;stroke:#fff;stroke-width:3;stroke-linecap:butt;stroke-linejoin:miter;stroke-miterlimit:4;stroke-dasharray:none;stroke-opacity:1"></path></g></g></g></svg></svg></g></svg></g></g><g opacity="1"><g id="a0f856c5-d83f-420f-985d-46d6e17aa452" transform="translate(0 0)"><svg x="900" y="540" overflow="visible"><g transform="scale(0.4245000000000002) "><svg x="-120.5" y="-104.5" overflow="visible"><image xlink:href="https://images.cloudcraft.co/7a412442-fa1d-4ce1-9f1f-195c54c70b1a/react.png" width="241" height="209"></image></svg></g></svg></g></g><g opacity="1"><g id="2941b5aa-0fbe-4174-a915-880ba4a314bd" transform="translate(0 0)"><svg x="945" y="1215" overflow="visible"><g transform="scale(0.4245000000000002) "><svg x="-100" y="-100" overflow="visible"><image xlink:href="https://images.cloudcraft.co/7a412442-fa1d-4ce1-9f1f-195c54c70b1a/ansible.png" width="200" height="200"></image></svg></g></svg></g></g><g opacity="1"><g id="9924210d-c50d-4ae4-8f61-4a1691ee6185" transform="translate(0 0)"><svg x="270" y="1238" overflow="visible"><g transform="scale(0.4245000000000002) "><svg x="-95.5" y="-132" overflow="visible"><image xlink:href="https://images.cloudcraft.co/7a412442-fa1d-4ce1-9f1f-195c54c70b1a/jenkins.png" width="191" height="264"></image></svg></g></svg></g></g><g opacity="1"><g id="395a5ea9-f83c-42e4-acb2-09c15f5f1e31" transform="translate(0 0)"><svg x="450" y="158" overflow="visible"><g transform="scale(0.4245000000000002) "><svg x="-112.5" y="-112" overflow="visible"><image xlink:href="https://images.cloudcraft.co/7a412442-fa1d-4ce1-9f1f-195c54c70b1a/hadoop.jpg" width="225" height="224"></image></svg></g></svg></g></g><g opacity="1"><g id="4f24b123-5b9b-471e-9951-c790eff67ca8" transform="translate(0 0)"><svg x="450" y="45" overflow="visible"><g transform="scale(0.4245000000000002) "><svg x="-112.5" y="-112" overflow="visible"><image xlink:href="https://images.cloudcraft.co/7a412442-fa1d-4ce1-9f1f-195c54c70b1a/hadoop.jpg" width="225" height="224"></image></svg></g></svg></g></g><g opacity="1"><g id="3798bcd2-46a1-4dcb-bb8c-fa8fd1e65960" transform="translate(0 0)"><svg x="450" y="270" overflow="visible"><g transform="scale(0.4245000000000002) "><svg x="-112.5" y="-112" overflow="visible"><image xlink:href="https://images.cloudcraft.co/7a412442-fa1d-4ce1-9f1f-195c54c70b1a/hadoop.jpg" width="225" height="224"></image></svg></g></svg></g></g><g opacity="1"><g id="91b60fe0-c0ce-4c07-9153-5b2c7ebeea5f" transform="translate(0 0)"><svg x="540" y="720" overflow="visible"><g transform="scale(0.4245000000000002) "><svg x="-94.5" y="-133.5" overflow="visible"><image xlink:href="https://images.cloudcraft.co/7a412442-fa1d-4ce1-9f1f-195c54c70b1a/kafka.png" width="189" height="267"></image></svg></g></svg></g></g><g opacity="1"><g id="fb5944a3-6b40-42f3-aede-e908d133e683" transform="translate(0 0)"><svg x="293" y="608" overflow="visible"><g transform="scale(0.5660000000000002) "><svg x="-156" y="-80.5" overflow="visible"><image xlink:href="https://images.cloudcraft.co/7a412442-fa1d-4ce1-9f1f-195c54c70b1a/mysql.png" width="312" height="161"></image></svg></g></svg></g></g><g opacity="1"><g id="88a92bd0-7763-4e39-9a2c-9d80b2d7ebfc" transform="translate(0 0)"><svg x="720" y="45" overflow="visible"><g transform="scale(0.4245000000000001) "><svg x="-118.5" y="-106.5" overflow="visible"><image xlink:href="https://images.cloudcraft.co/7a412442-fa1d-4ce1-9f1f-195c54c70b1a/hive.png" width="237" height="213"></image></svg></g></svg></g></g><g opacity="1"><g id="231bbb56-40b6-4b51-a18a-77840c19d5e8" transform="translate(0 0)"><svg x="360" y="720" overflow="visible"><g transform="scale(0.4245000000000002) "><svg x="-100" y="-100" overflow="visible"><image xlink:href="https://images.cloudcraft.co/7a412442-fa1d-4ce1-9f1f-195c54c70b1a/redis.png" width="200" height="200"></image></svg></g></svg></g></g><g opacity="1"><g id="f0833f73-d299-44ae-b987-a28fb11360c6" transform="translate(0 0)"><svg x="698" y="225" overflow="visible"><g transform="scale(0.4245000000000002) "><svg x="-156" y="-81" overflow="visible"><image xlink:href="https://images.cloudcraft.co/7a412442-fa1d-4ce1-9f1f-195c54c70b1a/spark.png" width="312" height="162"></image></svg></g></svg></g></g><g opacity="1"><g id="c6acdff2-2e48-4454-b864-2df364f39a8e" transform="translate(0 0)"><svg x="585" y="405" overflow="visible"><g transform="scale(0.5660000000000002) "><svg x="-159.5" y="-79" overflow="visible"><image xlink:href="https://images.cloudcraft.co/7a412442-fa1d-4ce1-9f1f-195c54c70b1a/sqoop.jpg" width="319" height="158"></image></svg></g></svg></g></g><g opacity="1"><g id="104d1fc8-c652-4e9f-a125-f2e3f9c07539" transform="translate(0 0)"><svg x="0" y="1260" overflow="visible"><g transform="scale(0.4245000000000002) "><svg x="-112.5" y="-112.5" overflow="visible"><image xlink:href="https://images.cloudcraft.co/7a412442-fa1d-4ce1-9f1f-195c54c70b1a/gitlab.png" width="225" height="225"></image></svg></g></svg></g></g><g opacity="1"><g id="7d70753c-8441-4f26-bb4b-b0f30d67aaee" transform="translate(0 0)"><svg x="180" y="158" overflow="visible"><g transform="scale(0.4245000000000002) "><svg x="-112.5" y="-112.5" overflow="visible"><image xlink:href="https://images.cloudcraft.co/7a412442-fa1d-4ce1-9f1f-195c54c70b1a/flume.jpg" width="225" height="225"></image></svg></g></svg></g></g><g opacity="1"><g id="ea809248-26ea-4369-acd7-015cad763cad" transform="translate(0 0)"><svg x="878" y="720" overflow="visible"><g transform="scale(0.7075000000000001) "><svg x="-83" y="-94" overflow="visible"><image xlink:href="https://images.cloudcraft.co/7a412442-fa1d-4ce1-9f1f-195c54c70b1a/gateway.png" width="166" height="188"></image></svg></g></svg></g></g><g opacity="1"><g id="05c540f8-86a6-4773-83a5-02fef26b91b7" transform="translate(0 0)"><svg x="180" y="945" overflow="visible"><g transform="scale(0.7075000000000001) "><svg x="-216.5" y="-58" overflow="visible"><image xlink:href="https://images.cloudcraft.co/7a412442-fa1d-4ce1-9f1f-195c54c70b1a/mongodb.png" width="433" height="116"></image></svg></g></svg></g></g><g opacity="1"><g id="616e48c5-eeed-4f0c-b89e-72c5d5a1737b" transform="translate(0 0)"><svg x="428" y="1508" overflow="visible"><g transform="scale(0.5660000000000002) "><svg x="-219" y="-57.5" overflow="visible"><image xlink:href="https://images.cloudcraft.co/7a412442-fa1d-4ce1-9f1f-195c54c70b1a/sonarqube2.png" width="438" height="115"></image></svg></g></svg></g></g><g opacity="1"><g id="99a0802b-5698-40cd-a916-8dcd54394bf2" transform="translate(0 0)"><svg x="720" y="900" overflow="visible"><g transform="scale(0.1415000000000002) "><svg x="-256" y="-256" overflow="visible"><image xlink:href="https://images.cloudcraft.co/7a412442-fa1d-4ce1-9f1f-195c54c70b1a/news.png" width="512" height="512"></image></svg></g></svg></g></g><g opacity="1"><g id="fcba7003-51e4-4dcb-82f6-c5e126724d59" transform="translate(0 0)"><svg x="720" y="540" overflow="visible"><g transform="scale(0.1415000000000002) "><svg x="-256" y="-256" overflow="visible"><image xlink:href="https://images.cloudcraft.co/7a412442-fa1d-4ce1-9f1f-195c54c70b1a/free-trade.png" width="512" height="512"></image></svg></g></svg></g></g><g opacity="1"><g id="73a09043-74fc-4ec7-83e5-93ea2b4606ea" transform="translate(0 0)"><svg x="720" y="720" overflow="visible"><g transform="scale(0.1415000000000002) "><svg x="-256" y="-256" overflow="visible"><image xlink:href="https://images.cloudcraft.co/7a412442-fa1d-4ce1-9f1f-195c54c70b1a/teamwork.png" width="512" height="512"></image></svg></g></svg></g></g><g opacity="1"><g id="aae7c5da-2817-4e13-b68d-8a49936ed11e" transform="translate(0 0)"><svg x="900" y="900" overflow="visible"><g transform="scale(0.2830000000000002) "><svg x="-121" y="-104" overflow="visible"><image xlink:href="https://images.cloudcraft.co/7a412442-fa1d-4ce1-9f1f-195c54c70b1a/eureka.png" width="242" height="208"></image></svg></g></svg></g></g><g opacity="1"><g id="4c3f1478-0c58-49b3-9522-ffd73a8f2eeb" transform="translate(0 0)"><svg x="563" y="1103" overflow="visible"><g transform="scale(0.8490000000000002) "><svg x="-74.5" y="-59.5" overflow="visible"><image xlink:href="https://images.cloudcraft.co/7a412442-fa1d-4ce1-9f1f-195c54c70b1a/config.png" width="149" height="119"></image></svg></g></svg></g></g><g opacity="1"><g id="95dab270-14a8-4370-8503-1a3ff1ab460d" transform="translate(0 0)"><svg x="1305" y="1260" overflow="visible"><g transform="scale(0.8490000000000002) rotate(270)"><svg x="-170" y="-60" overflow="visible"><image xlink:href="https://images.cloudcraft.co/7a412442-fa1d-4ce1-9f1f-195c54c70b1a/dockerhub3.png" width="340" height="120"></image></svg></g></svg></g></g></g><g pointer-events="auto"></g><g pointer-events="auto"><g opacity="1"><g id="314444cc-727e-4652-9be3-457c1c68a7cc" transform="translate(0 0)"><svg x="1238" y="630" overflow="visible"><text stroke="#ffffff" stroke-width="4" font-family="Open Sans" y="36.5" font-size="25pt" fill="#000000" font-weight="bold" transform="" xml:space="preserve"><tspan x="8" dy="0">User</tspan></text><text font-family="Open Sans" y="36.5" font-size="25pt" fill="#000000" font-weight="bold" transform="" xml:space="preserve"><tspan x="8" dy="0">User</tspan></text></svg></g></g><g opacity="1"><g id="7c72a060-8b7f-49a7-ab79-34c692c751c0" transform="translate(0 0)"><svg x="-45" y="1530" overflow="visible"><text stroke="#ffffff" stroke-width="4" font-family="Open Sans" y="36.5" font-size="25pt" fill="#000000" font-weight="bold" transform="" xml:space="preserve"><tspan x="8" dy="0">Developer</tspan></text><text font-family="Open Sans" y="36.5" font-size="25pt" fill="#000000" font-weight="bold" transform="" xml:space="preserve"><tspan x="8" dy="0">Developer</tspan></text></svg></g></g><g opacity="1"><g id="a2b05f2a-a580-4a5c-9ca9-f6616e198b02" transform="translate(0 0)"><svg x="833" y="0" overflow="visible"><text stroke="#ffffff" stroke-width="4" font-family="Open Sans" y="36.5" font-size="25pt" fill="#000000" font-weight="bold" transform="" xml:space="preserve"><tspan x="8" dy="0">Cluster Server</tspan></text><text font-family="Open Sans" y="36.5" font-size="25pt" fill="#000000" font-weight="bold" transform="" xml:space="preserve"><tspan x="8" dy="0">Cluster Server</tspan></text></svg></g></g><g opacity="1"><g id="a7101980-9862-41ea-bdbd-9ef1750e1edb" transform="translate(0 0)"><svg x="968" y="495" overflow="visible"><text stroke="#ffffff" stroke-width="4" font-family="Open Sans" y="36.5" font-size="25pt" fill="#000000" font-weight="bold" transform="" xml:space="preserve"><tspan x="8" dy="0">Server</tspan></text><text font-family="Open Sans" y="36.5" font-size="25pt" fill="#000000" font-weight="bold" transform="" xml:space="preserve"><tspan x="8" dy="0">Server</tspan></text></svg></g></g></g></g></svg>